<svg xmlns="http://www.w3.org/2000/svg" xmlns:i="&amp;ns_ai;" width="453.1" height="109.9"><defs/><switch transform="translate(-284.1 -444.8)"><g i:extraneous="self"><path stroke-width=".9" d="M358.3 489l24.1-14-52.3-30.2-46 26.5v53.1l52.3 30.3v-25.3l46-26.6zm-34.5 43.6l-27-15.6v-38.4l33.3-19.2 26.9 15.5-33.2 19.2zm12.7-31l9.1-5.3 11.4 6.5-20.5 12z"/><path d="M424.4 480.6V494h21.2v9.9h-21.2V525H414v-54.4h36.3v9.9h-25.9zM467.2 525h-9.9v-54.4h9.9zM514.3 505.2a19 19 0 01-1.6 7.9 21.6 21.6 0 01-10.6 10.8 17.9 17.9 0 01-7.6 1.6 19.9 19.9 0 01-13.9-6 20 20 0 01-5.9-14.3c0-2.8.5-5.5 1.6-7.9a21.6 21.6 0 0110.6-10.8c2.4-1.1 4.9-1.6 7.6-1.6a19.9 19.9 0 0113.9 6 20 20 0 015.9 14.3zm-29.8 0c0 3.3 1 5.9 2.9 7.9s4.3 2.9 7.1 2.9 5.2-1 7.1-2.9a11 11 0 002.8-7.9 11 11 0 00-2.8-7.9 9.4 9.4 0 00-7.1-2.9c-2.8 0-5.2 1-7.1 2.9-2 2-2.9 4.6-2.9 7.9zM546.2 501.3l-7.3 23.8h-8.6l-13-39.7h9.9l7.8 25.5 8.2-25.5h6l8.2 25.5 7.8-25.5h9.9l-13 39.7h-8.6zM587.7 512.5c.2 1.3.9 2.4 1.9 3.4a6 6 0 004.1 1.4 6 6 0 004.1-1.3 4 4 0 001.5-3c0-.9-.5-1.6-1.5-2.2-1-.5-2.3-1-3.8-1.4l-4.9-1.3c-1.8-.5-3.4-1.1-4.9-2s-2.8-2-3.8-3.5a9.5 9.5 0 01-1.5-5.6 10.7 10.7 0 013.9-8.4 15.5 15.5 0 0110.4-3.6 16 16 0 0111 3.5c2.6 2.3 4.1 5.2 4.5 8.6h-9.5c-.2-.9-.9-1.7-1.9-2.6s-2.3-1.3-3.8-1.3-2.7.4-3.5 1.1-1.3 1.7-1.3 2.8c0 .9.5 1.6 1.5 2.2 1 .5 2.3 1 3.8 1.4l4.9 1.4c1.8.5 3.4 1.2 4.9 2.1a13 13 0 013.8 3.6 10 10 0 011.5 5.7 11 11 0 01-3.9 8.4 16.6 16.6 0 01-10.7 3.6c-5.2 0-9.1-1.2-11.8-3.5a13.9 13.9 0 01-4.6-9.4h9.6zM652.9 510.4a18.7 18.7 0 01-6.4 10.5 18.5 18.5 0 01-26-1.3 20 20 0 01-5.9-14.3c0-2.8.5-5.5 1.6-7.9a21.6 21.6 0 0110.6-10.8 17.9 17.9 0 0114.2-.3 20.9 20.9 0 019.6 8.2c1.1 1.8 1.9 3.7 2.3 5.7H643c-.5-1-1.1-2-1.9-2.8-.7-.7-1.6-1.3-2.7-1.9a8.3 8.3 0 00-4.1-.9c-2.8 0-5.2 1-7.1 2.9a11 11 0 00-2.9 7.9c0 3.3 1 5.9 2.9 7.9s4.3 2.9 7.1 2.9c1.6 0 3-.3 4.1-.9s2-1.2 2.7-1.9c.8-.8 1.4-1.8 1.9-2.9h9.9zM676.2 484.9a16 16 0 0111.1 4.4 16 16 0 014.4 11.1V525h-7.3l-1.7-3.9a16 16 0 01-11.2 4.3c-4.3 0-7.6-1-9.9-3.2a10.5 10.5 0 01-3.5-8.1c0-2 .4-3.8 1.2-5.4s2.1-3.1 3.9-4.2c1.8-1.2 4.3-2.1 7.3-2.8s6.8-1 11.4-1c0-2.2-.6-3.9-1.8-5.1a6.4 6.4 0 00-4.7-1.8 6 6 0 00-3.2.7c-.8.5-1.4 1-1.9 1.5-.5.6-.9 1.4-1 2.2h-9.9c.2-1.8.8-3.6 1.6-5.2s2-3 3.4-4.2a17 17 0 0111.8-3.9zm-3 32.8c2.6 0 4.7-.8 6.3-2.3a7.8 7.8 0 002.4-5.9v-1.7c-2.9 0-5.3.1-7.1.4s-3.2.6-4.2 1.1-1.7 1.1-2 1.8a6 6 0 00-.5 2.3 4 4 0 001.5 3 5 5 0 003.6 1.3zM721.1 484.9c2.4 0 4.5.4 6.5 1.2a14.7 14.7 0 018.4 8.7c.8 2.1 1.2 4.4 1.2 7V525h-9.9v-22c0-2.6-.8-4.7-2.3-6.3a7.8 7.8 0 00-5.9-2.4c-2.4 0-4.4.8-5.9 2.4a8.9 8.9 0 00-2.3 6.3v22H701v-39.7h7.3l1.7 3.9c1-.8 2-1.5 3.2-2.2l3.5-1.5c1.2-.4 2.7-.6 4.4-.6z"/></g></switch></svg>